<svg xmlns="http://www.w3.org/2000/svg" width="179" height="31" viewBox="0 0 179 31">
    <g fill="#000" fill-rule="evenodd">
        <path d="M8.746 18.383c-2.515-.982-4.687-1.83-4.687-3.787 0-2.26 2.058-3.067 3.985-3.067 3.332 0 5.102 1.842 5.12 1.86l.17.182 1.491-2.503-.091-.103c-.086-.096-2.152-2.358-6.606-2.358-3.547 0-7.364 1.874-7.364 5.99 0 3.891 3.514 5.283 6.612 6.511 2.519.998 4.693 1.86 4.693 3.799 0 2.177-2.021 3.151-4.025 3.151-3.788 0-6.097-2.46-6.12-2.485l-.153-.165L0 27.755l.1.115c.03.031.703.793 2.02 1.561 1.208.707 3.21 1.55 5.882 1.55 4.267 0 7.364-2.555 7.364-6.074 0-3.94-3.518-5.314-6.62-6.524M38.04 19.69c0 4.693-3.51 8.368-7.99 8.368-4.478 0-7.988-3.675-7.988-8.367 0-4.555 3.51-8.12 7.989-8.12 4.48 0 7.99 3.565 7.99 8.12zM30.05 8.608c-6.326 0-11.283 4.868-11.283 11.084 0 6.33 4.957 11.29 11.284 11.29 6.328 0 11.285-4.96 11.285-11.29 0-6.216-4.957-11.084-11.285-11.084zM55.294.691a8.749 8.749 0 0 0-1.323-.085c-2.236 0-7.437.777-7.437 7.982v.813h-2.857v2.752h2.857v18.343h3.208V12.153h5.375V9.4h-5.375v-.813c0-1.891.589-5.065 4.52-5.065.556 0 .961.08.965.08l.223.045V.718L55.294.69M70.44 27.892l-.232.05a4.732 4.732 0 0 1-.936.081c-1.722 0-4.611-.71-4.611-5.463V12.212h5.355V9.407H64.66V3.24h-3.23v6.166h-2.847v2.805h2.804v10.645c0 7.085 4.78 8.143 7.63 8.143.773 0 1.246-.084 1.265-.088l.158-.028v-2.992M76.967 24.127s2.345 2.347 5.82 2.347c1.509 0 2.805-.67 2.805-1.927 0-3.185-10.384-2.766-10.384-9.637 0-3.98 3.56-6.286 8.165-6.286 4.816 0 7.16 2.43 7.16 2.43l-1.967 3.94s-1.968-1.844-5.234-1.844c-1.382 0-2.722.586-2.722 1.927 0 3.017 10.385 2.64 10.385 9.51 0 3.562-3.099 6.41-8.165 6.41-5.319 0-8.293-3.142-8.293-3.142l2.43-3.728M109.43 17.173c-.084-2.892-1.885-4.443-4.23-4.443-2.72 0-4.606 1.677-5.109 4.443h9.339zm-4.104-8.549c6.156 0 9.464 4.483 9.464 10.14 0 .628-.125 2.054-.125 2.054h-14.74c.334 3.73 3.225 5.656 6.406 5.656 3.434 0 6.155-2.347 6.155-2.347l2.053 3.814s-3.267 3.057-8.585 3.057c-7.077 0-11.474-5.11-11.474-11.186 0-6.578 4.482-11.188 10.846-11.188zM120.142 9.128h5.11v3.687c0 .795-.084 1.508-.084 1.508h.083c.964-3.058 3.518-5.489 6.784-5.489.503 0 .963.084.963.084v5.238s-.544-.084-1.256-.084c-2.262 0-4.816 1.298-5.82 4.483-.335 1.047-.46 2.22-.46 3.477v8.464h-5.32V9.128M135.314 9.128h5.611l4.439 13.239c.42 1.258.713 2.678.752 2.678h.086c.041 0 .334-1.42.753-2.678l4.44-13.24h5.61l-7.663 21.369h-6.281l-7.747-21.368M173.265 17.173c-.083-2.892-1.884-4.443-4.229-4.443-2.722 0-4.607 1.677-5.109 4.443h9.338zm-4.103-8.549c6.156 0 9.464 4.483 9.464 10.14 0 .628-.126 2.054-.126 2.054h-14.74c.335 3.73 3.224 5.656 6.407 5.656 3.433 0 6.155-2.347 6.155-2.347l2.053 3.814s-3.267 3.057-8.585 3.057c-7.076 0-11.474-5.11-11.474-11.186 0-6.578 4.481-11.188 10.846-11.188z"/>
    </g>
</svg>
